<?xml version="1.0" encoding="utf-8"?>
<!-- Generator: Adobe Illustrator 17.1.0, SVG Export Plug-In . SVG Version: 6.00 Build 0)  -->
<!DOCTYPE svg PUBLIC "-//W3C//DTD SVG 1.1//EN" "http://www.w3.org/Graphics/SVG/1.1/DTD/svg11.dtd">
<svg version="1.1" id="Layer_1" xmlns="http://www.w3.org/2000/svg" xmlns:xlink="http://www.w3.org/1999/xlink" x="0px" y="0px"
	 viewBox="0 0 409 83" enable-background="new 0 0 409 83" xml:space="preserve">
<path fill-rule="evenodd" clip-rule="evenodd" fill="#FFFFFF" stroke="#696969" stroke-width="1.6801" stroke-miterlimit="22.9256" d="
	M11.762,9.458c0-1.024,0.309-1.881,0.929-2.573c0.62-0.69,1.37-1.035,2.25-1.035c0.879,0,1.639,0.345,2.279,1.035
	c0.64,0.692,0.961,1.548,0.961,2.573v1.804c0,0.981-0.31,1.816-0.93,2.505c-0.62,0.691-1.39,1.036-2.31,1.036
	c-0.84,0-1.581-0.345-2.219-1.036c-0.641-0.69-0.96-1.525-0.96-2.505V9.458L11.762,9.458z M11.762,20.349
	c0-1.024,0.309-1.881,0.929-2.573c0.62-0.69,1.37-1.035,2.25-1.035c0.879,0,1.639,0.345,2.279,1.035
	c0.64,0.692,0.961,1.548,0.961,2.573v25.926c0,1.025-0.31,1.881-0.93,2.572c-0.62,0.691-1.39,1.035-2.31,1.035
	c-0.84,0-1.581-0.345-2.219-1.035c-0.641-0.691-0.96-1.547-0.96-2.572V20.349z"/>
<path fill-rule="evenodd" clip-rule="evenodd" fill="#FFFFFF" stroke="#696969" stroke-width="1.6801" stroke-miterlimit="22.9256" d="
	M30.358,28.835c0-1.692,0.289-3.284,0.87-4.777c0.579-1.492,1.38-2.807,2.4-3.942c1.02-1.136,2.198-2.026,3.54-2.672
	c1.339-0.646,2.789-0.97,4.349-0.97c1.52,0,2.959,0.324,4.319,0.97c1.359,0.646,2.55,1.537,3.57,2.672
	c1.02,1.136,1.819,2.451,2.399,3.942c0.58,1.493,0.871,3.085,0.871,4.777v17.439c0,1.026-0.321,1.882-0.96,2.573
	c-0.641,0.691-1.4,1.035-2.28,1.035c-0.88,0-1.63-0.345-2.25-1.035c-0.62-0.69-0.929-1.547-0.929-2.573V28.835
	c0-0.712-0.13-1.38-0.39-2.005c-0.26-0.624-0.6-1.168-1.019-1.637c-0.419-0.469-0.92-0.836-1.5-1.103
	c-0.58-0.267-1.19-0.401-1.83-0.401c-1.32,0-2.44,0.501-3.359,1.504c-0.92,1.002-1.38,2.215-1.38,3.641v17.439
	c0,1.025-0.32,1.882-0.96,2.573c-0.641,0.691-1.379,1.035-2.22,1.035c-0.92,0-1.691-0.345-2.31-1.035
	c-0.62-0.691-0.929-1.547-0.929-2.573L30.358,28.835z"/>
<path fill-rule="evenodd" clip-rule="evenodd" fill="#FFFFFF" stroke="#696969" stroke-width="1.6801" stroke-miterlimit="22.9256" d="
	M80.207,25.913c-0.56-0.753-1.14-1.33-1.739-1.688c-0.6-0.356-1.38-0.534-2.34-0.534c-1.239,0-2.239,0.256-2.999,0.768
	c-0.76,0.513-1.14,1.148-1.14,1.905c0,1.026,0.369,1.737,1.109,2.138c0.739,0.4,1.749,0.601,3.029,0.601
	c1.52,0,2.96,0.223,4.319,0.669c1.358,0.445,2.55,1.113,3.568,2.004c1.02,0.892,1.819,1.982,2.4,3.274
	c0.578,1.293,0.869,2.807,0.869,4.544c0,1.782-0.3,3.331-0.899,4.645c-0.6,1.314-1.409,2.406-2.43,3.274
	c-1.02,0.869-2.22,1.526-3.6,1.971c-1.38,0.445-2.829,0.668-4.349,0.668c-0.32,0-0.92-0.057-1.8-0.167
	c-0.88-0.11-1.859-0.411-2.939-0.901c-1.08-0.49-2.17-1.258-3.27-2.306c-1.1-1.046-2.01-2.483-2.728-4.31
	c-0.161-0.356-0.24-0.802-0.24-1.336c0-0.979,0.309-1.825,0.93-2.539c0.62-0.712,1.39-1.068,2.31-1.068
	c0.68,0,1.279,0.212,1.8,0.634c0.52,0.423,0.9,0.947,1.141,1.571c0.398,1.025,1.08,1.815,2.039,2.372
	c0.96,0.558,1.92,0.835,2.88,0.835c1.279,0,2.39-0.234,3.33-0.701c0.939-0.468,1.409-1.347,1.409-2.64
	c0-1.292-0.45-2.172-1.35-2.639c-0.9-0.468-2.03-0.702-3.39-0.702c-1.521,0-2.93-0.166-4.229-0.5
	c-1.301-0.334-2.42-0.879-3.359-1.638c-0.939-0.756-1.671-1.771-2.189-3.04c-0.52-1.271-0.779-2.842-0.779-4.713
	c0-1.471,0.26-2.806,0.779-4.008c0.52-1.203,1.25-2.239,2.189-3.107c0.94-0.869,2.06-1.547,3.359-2.038
	c1.299-0.491,2.709-0.736,4.229-0.736c1.239,0.046,2.438,0.268,3.6,0.669c0.999,0.357,2.019,0.891,3.06,1.604
	c1.039,0.713,1.899,1.737,2.58,3.074c0.359,0.668,0.539,1.336,0.539,2.005c0,0.98-0.3,1.815-0.899,2.505
	c-0.6,0.691-1.34,1.036-2.22,1.036c-0.439,0-0.899-0.122-1.38-0.368C80.928,26.753,80.528,26.386,80.207,25.913z"/>
<path fill-rule="evenodd" clip-rule="evenodd" fill="#FFFFFF" stroke="#696969" stroke-width="1.6801" stroke-miterlimit="22.9256" d="
	M99.645,10.127c0-1.024,0.31-1.881,0.93-2.573c0.62-0.69,1.37-1.036,2.25-1.036c0.879,0,1.64,0.346,2.28,1.036
	c0.638,0.691,0.959,1.548,0.959,2.573v6.614h9.657c0.92,0,1.69,0.345,2.31,1.035c0.619,0.691,0.93,1.548,0.93,2.573
	c0,0.935-0.311,1.76-0.93,2.473c-0.62,0.712-1.391,1.068-2.31,1.068h-9.658v13.898c0,0.713,0.13,1.381,0.391,2.004
	c0.26,0.625,0.6,1.169,1.02,1.638c0.42,0.467,0.919,0.835,1.499,1.102c0.58,0.267,1.189,0.401,1.83,0.401
	c0.92,0,1.778-0.279,2.58-0.835c0.8-0.557,1.399-1.347,1.8-2.372c0.239-0.624,0.619-1.146,1.14-1.571
	c0.52-0.423,1.119-0.634,1.8-0.634c0.92,0,1.689,0.356,2.31,1.068c0.619,0.714,0.93,1.561,0.93,2.539c0,0.356-0.1,0.802-0.3,1.336
	c-0.801,2.004-1.78,3.53-2.939,4.577c-1.16,1.047-2.28,1.805-3.359,2.273c-1.08,0.468-2,0.723-2.759,0.768
	c-0.762,0.044-1.161,0.067-1.2,0.067c-1.521,0-2.961-0.322-4.319-0.969c-1.36-0.646-2.55-1.537-3.569-2.672
	c-1.02-1.135-1.82-2.45-2.399-3.942c-0.58-1.492-0.87-3.084-0.87-4.778V10.127z"/>
<path fill-rule="evenodd" clip-rule="evenodd" fill="#FFFFFF" stroke="#696969" stroke-width="1.6801" stroke-miterlimit="22.9256" d="
	M132.338,28.835c0-1.692,0.29-3.284,0.87-4.777c0.579-1.492,1.379-2.807,2.399-3.942c1.019-1.136,2.199-2.026,3.54-2.672
	c1.34-0.646,2.79-0.97,4.349-0.97c1.52,0,2.96,0.324,4.319,0.97c1.359,0.646,2.55,1.537,3.568,2.672
	c1.02,1.136,1.819,2.451,2.4,3.942c0.578,1.493,0.869,3.085,0.869,4.777v17.439c0,1.026-0.32,1.882-0.959,2.573
	c-0.641,0.691-1.381,1.035-2.22,1.035c-0.44,0-0.891-0.134-1.35-0.401c-0.461-0.267-0.851-0.557-1.17-0.868
	c-1.721,1.025-3.54,1.537-5.46,1.537c-1.521,0-2.96-0.322-4.318-0.968c-1.36-0.645-2.55-1.537-3.57-2.672
	c-1.02-1.135-1.819-2.45-2.399-3.942s-0.87-3.084-0.87-4.778v-8.955H132.338L132.338,28.835z M138.818,37.789
	c0,1.426,0.459,2.639,1.38,3.641c0.919,1.002,2.019,1.504,3.299,1.504c1.279,0,2.37-0.468,3.27-1.404
	c0.899-0.936,1.389-2.094,1.471-3.475v-9.22c0-0.712-0.131-1.38-0.39-2.005c-0.261-0.624-0.601-1.168-1.02-1.637
	c-0.42-0.468-0.92-0.835-1.5-1.103c-0.58-0.267-1.189-0.401-1.83-0.401c-1.318,0-2.43,0.5-3.329,1.504
	c-0.899,1.002-1.35,2.215-1.35,3.641V37.789z"/>
<path fill-rule="evenodd" clip-rule="evenodd" fill="#FFFFFF" stroke="#696969" stroke-width="1.6801" stroke-miterlimit="22.9256" d="
	M166.773,10.193c0-1.024,0.31-1.881,0.93-2.573c0.62-0.69,1.37-1.035,2.25-1.035c0.879,0,1.639,0.346,2.279,1.035
	c0.64,0.692,0.961,1.548,0.961,2.573v36.081c0,1.026-0.311,1.882-0.931,2.573c-0.62,0.691-1.39,1.035-2.31,1.035
	c-0.84,0-1.58-0.345-2.22-1.035c-0.641-0.69-0.959-1.547-0.959-2.573L166.773,10.193z"/>
<path fill-rule="evenodd" clip-rule="evenodd" fill="#FFFFFF" stroke="#696969" stroke-width="1.6801" stroke-miterlimit="22.9256" d="
	M185.309,10.193c0-1.024,0.31-1.881,0.93-2.573c0.619-0.69,1.369-1.035,2.249-1.035c0.88,0,1.64,0.346,2.28,1.035
	c0.64,0.692,0.96,1.548,0.96,2.573v36.081c0,1.026-0.31,1.882-0.93,2.573c-0.62,0.691-1.391,1.035-2.31,1.035
	c-0.84,0-1.58-0.345-2.22-1.035c-0.641-0.69-0.96-1.547-0.96-2.573V10.193z"/>
<g>
	
		<path fill-rule="evenodd" clip-rule="evenodd" fill="#696969" stroke="#696969" stroke-width="0.5669" stroke-miterlimit="22.9256" d="
		M203.155,18.211c0-1.737,0.287-3.362,0.864-4.877c0.577-1.514,1.357-2.817,2.338-3.909c0.981-1.091,2.136-1.96,3.463-2.606
		c1.327-0.646,2.741-0.968,4.242-0.968c0.269,0,0.788,0.056,1.558,0.167c0.77,0.112,1.645,0.423,2.626,0.935
		c0.98,0.512,1.972,1.293,2.973,2.339c1.001,1.047,1.848,2.484,2.54,4.31c0.192,0.535,0.288,0.959,0.288,1.269
		c0,1.025-0.299,1.883-0.895,2.573c-0.597,0.691-1.338,1.035-2.223,1.035c-2.373,0-2.656-1.647-2.892-2.149
		c-0.234-0.503-0.898-1.881-1.668-2.46c-0.77-0.578-1.597-0.868-2.481-0.868c-0.616,0-1.203,0.145-1.76,0.434
		c-0.559,0.29-1.04,0.668-1.443,1.136c-0.403,0.467-0.732,1.014-0.98,1.637c-0.251,0.625-0.375,1.293-0.375,2.005v11.492
		l4.733-0.001c0.847,0,1.568,0.357,2.165,1.068c0.596,0.714,0.895,1.561,0.895,2.54c0,1.025-0.299,1.882-0.895,2.573
		c-0.597,0.691-1.318,1.035-2.165,1.035h-4.732v9.354c0,1.025-0.309,1.881-0.924,2.572c-0.615,0.691-1.348,1.035-2.193,1.035
		c-0.847,0-1.568-0.345-2.164-1.035c-0.597-0.691-0.895-1.547-0.895-2.572V18.211z"/>
	
		<path fill-rule="evenodd" clip-rule="evenodd" fill="#696969" stroke="#696969" stroke-width="0.5669" stroke-miterlimit="22.9256" d="
		M203.155,18.211c0-1.737,0.287-3.362,0.864-4.877c0.577-1.514,1.357-2.817,2.338-3.909c0.981-1.091,2.136-1.96,3.463-2.606
		c1.327-0.646,2.741-0.968,4.242-0.968c0.269,0,0.788,0.056,1.558,0.167c0.77,0.112,1.645,0.423,2.626,0.935
		c0.98,0.512,1.972,1.293,2.973,2.339c1.001,1.047,1.848,2.484,2.54,4.31c0.192,0.535,0.288,0.959,0.288,1.269
		c0,1.025-0.299,1.883-0.895,2.573c-0.597,0.691-1.338,1.035-2.223,1.035c-2.373,0-2.656-1.647-2.892-2.149
		c-0.234-0.503-0.898-1.881-1.668-2.46c-0.77-0.578-1.597-0.868-2.481-0.868c-0.616,0-1.203,0.145-1.76,0.434
		c-0.559,0.29-1.04,0.668-1.443,1.136c-0.403,0.467-0.732,1.014-0.98,1.637c-0.251,0.625-0.375,1.293-0.375,2.005v11.492
		l4.733-0.001c0.847,0,1.568,0.357,2.165,1.068c0.596,0.714,0.895,1.561,0.895,2.54c0,1.025-0.299,1.882-0.895,2.573
		c-0.597,0.691-1.318,1.035-2.165,1.035h-4.732v9.354c0,1.025-0.309,1.881-0.924,2.572c-0.615,0.691-1.348,1.035-2.193,1.035
		c-0.847,0-1.568-0.345-2.164-1.035c-0.597-0.691-0.895-1.547-0.895-2.572V18.211z"/>
</g>
<g>
	
		<path fill-rule="evenodd" clip-rule="evenodd" fill="#696969" stroke="#696969" stroke-width="0.5669" stroke-miterlimit="22.9256" d="
		M229.819,28.835c0-1.692,0.278-3.284,0.837-4.777c0.558-1.492,1.327-2.807,2.309-3.942c0.98-1.136,2.116-2.026,3.405-2.672
		c1.289-0.646,2.684-0.97,4.185-0.97c1.462,0,2.847,0.324,4.155,0.97c1.309,0.646,2.453,1.537,3.435,2.672
		c0.981,1.136,1.75,2.451,2.31,3.942c0.558,1.493,0.836,3.085,0.836,4.777v4.477c0,1.026-0.298,1.882-0.895,2.573
		c-0.597,0.691-1.318,1.035-2.165,1.035l-12.178,0v0.869c0,1.427,0.442,2.639,1.328,3.641c0.884,1.001,1.942,1.504,3.174,1.504
		c0.462,0,0.99-0.067,1.587-0.201c0.597-0.134,1.163-0.579,1.702-1.336c0.231-0.311,0.519-0.635,0.865-0.969
		c0.347-0.333,0.722-0.59,1.125-0.768c0.405-0.177,0.838-0.255,1.3-0.234c0.461,0.023,0.923,0.234,1.385,0.634
		c0.615,0.49,1.03,1.192,1.24,2.105c0.212,0.914,0.01,1.883-0.605,2.907c-0.847,1.292-1.943,2.461-3.29,3.507
		c-1.348,1.047-3.116,1.571-5.31,1.571c-1.463,0-2.848-0.322-4.155-0.968c-1.309-0.645-2.453-1.537-3.435-2.672
		c-0.981-1.135-1.751-2.45-2.309-3.942c-0.559-1.492-0.837-3.084-0.837-4.778L229.819,28.835L229.819,28.835L229.819,28.835z
		 M236.053,29.705h9.061v-0.869c0-0.711-0.126-1.38-0.375-2.005c-0.251-0.624-0.577-1.168-0.98-1.637
		c-0.403-0.468-0.886-0.835-1.442-1.103c-0.559-0.267-1.146-0.4-1.76-0.4c-1.27,0-2.338,0.5-3.204,1.504
		c-0.865,1.001-1.298,2.215-1.298,3.641L236.053,29.705L236.053,29.705z M236.053,29.705h-0.001"/>
	
		<path fill-rule="evenodd" clip-rule="evenodd" fill="#696969" stroke="#696969" stroke-width="0.5669" stroke-miterlimit="22.9256" d="
		M229.819,28.835c0-1.692,0.278-3.284,0.837-4.777c0.558-1.492,1.327-2.807,2.309-3.942c0.98-1.136,2.116-2.026,3.405-2.672
		c1.289-0.646,2.684-0.97,4.185-0.97c1.462,0,2.847,0.324,4.155,0.97c1.309,0.646,2.453,1.537,3.435,2.672
		c0.981,1.136,1.75,2.451,2.31,3.942c0.558,1.493,0.836,3.085,0.836,4.777v4.477c0,1.026-0.298,1.882-0.895,2.573
		c-0.597,0.691-1.318,1.035-2.165,1.035l-12.178,0v0.869c0,1.427,0.442,2.639,1.328,3.641c0.884,1.001,1.942,1.504,3.174,1.504
		c0.462,0,0.99-0.067,1.587-0.201c0.597-0.134,1.163-0.579,1.702-1.336c0.231-0.311,0.519-0.635,0.865-0.969
		c0.347-0.333,0.722-0.59,1.125-0.768c0.405-0.177,0.838-0.255,1.3-0.234c0.461,0.023,0.923,0.234,1.385,0.634
		c0.615,0.49,1.03,1.192,1.24,2.105c0.212,0.914,0.01,1.883-0.605,2.907c-0.847,1.292-1.943,2.461-3.29,3.507
		c-1.348,1.047-3.116,1.571-5.31,1.571c-1.463,0-2.848-0.322-4.155-0.968c-1.309-0.645-2.453-1.537-3.435-2.672
		c-0.981-1.135-1.751-2.45-2.309-3.942c-0.559-1.492-0.837-3.084-0.837-4.778L229.819,28.835L229.819,28.835L229.819,28.835z
		 M236.053,29.705h9.061v-0.869c0-0.711-0.126-1.38-0.375-2.005c-0.251-0.624-0.577-1.168-0.98-1.637
		c-0.403-0.468-0.886-0.835-1.442-1.103c-0.559-0.267-1.146-0.4-1.76-0.4c-1.27,0-2.338,0.5-3.204,1.504
		c-0.865,1.001-1.298,2.215-1.298,3.641L236.053,29.705L236.053,29.705z M236.053,29.705h-0.001H236.053z"/>
</g>
<g>
	
		<path fill-rule="evenodd" clip-rule="evenodd" fill="#696969" stroke="#696969" stroke-width="0.5669" stroke-miterlimit="22.9256" d="
		M277.525,25.948c-0.275-0.409-1.129-1.365-1.707-1.723c-0.576-0.356-1.328-0.534-2.25-0.534c-1.193,0-2.156,0.256-2.887,0.768
		c-0.73,0.513-1.098,1.148-1.098,1.905c0,1.026,0.355,1.737,1.068,2.138c0.711,0.4,1.682,0.601,2.914,0.601
		c1.463,0,2.848,0.223,4.154,0.669c1.309,0.445,2.453,1.113,3.436,2.004c0.98,0.892,1.75,1.982,2.309,3.274
		c0.559,1.293,0.836,2.807,0.836,4.544c0,1.782-0.287,3.331-0.865,4.645c-0.576,1.314-1.355,2.406-2.338,3.274
		c-0.98,0.869-2.135,1.526-3.463,1.971c-1.326,0.445-2.723,0.668-4.184,0.668c-0.309,0-0.885-0.057-1.732-0.167
		c-0.846-0.11-1.789-0.411-2.826-0.901c-1.039-0.49-2.088-1.258-3.146-2.306c-1.059-1.046-1.934-2.483-2.625-4.31
		c-0.154-0.356-0.23-0.802-0.23-1.336c0-0.979,0.297-1.825,0.895-2.539c0.594-0.712,1.336-1.068,2.221-1.068
		c0.654,0,1.232,0.212,1.732,0.634c0.5,0.423,0.865,0.947,1.098,1.571c0.383,1.025,1.037,1.815,1.961,2.372
		c0.924,0.558,1.848,0.835,2.772,0.835c1.23,0,2.297-0.234,3.203-0.701c0.902-0.468,1.356-1.347,1.356-2.64
		c0-1.292-0.432-2.172-1.299-2.639c-0.865-0.468-1.953-0.702-3.26-0.702c-1.465,0-2.82-0.166-4.07-0.5
		c-1.252-0.334-2.328-0.879-3.232-1.638c-0.904-0.756-1.605-1.771-2.105-3.04c-0.502-1.271-0.752-2.842-0.752-4.713
		c0-1.471,0.25-2.806,0.752-4.008c0.498-1.203,1.201-2.239,2.105-3.107c0.904-0.869,1.982-1.547,3.232-2.038
		c1.25-0.491,2.605-0.736,4.07-0.736c1.191,0.046,2.346,0.268,3.463,0.669c0.961,0.357,1.941,0.891,2.943,1.604
		c1,0.713,1.826,1.737,2.482,3.074c0.346,0.668,0.518,1.336,0.518,2.005c0,0.98-0.287,1.815-0.865,2.505
		c-0.576,0.691-1.289,1.036-2.135,1.036c-0.424,0-0.865-0.122-1.328-0.368C278.213,26.768,277.801,26.356,277.525,25.948z"/>
	
		<path fill-rule="evenodd" clip-rule="evenodd" fill="#696969" stroke="#696969" stroke-width="0.5669" stroke-miterlimit="22.9256" d="
		M277.525,25.948c-0.275-0.409-1.129-1.365-1.707-1.723c-0.576-0.356-1.328-0.534-2.25-0.534c-1.193,0-2.156,0.256-2.887,0.768
		c-0.73,0.513-1.098,1.148-1.098,1.905c0,1.026,0.355,1.737,1.068,2.138c0.711,0.4,1.682,0.601,2.914,0.601
		c1.463,0,2.848,0.223,4.154,0.669c1.309,0.445,2.453,1.113,3.436,2.004c0.98,0.892,1.75,1.982,2.309,3.274
		c0.559,1.293,0.836,2.807,0.836,4.544c0,1.782-0.287,3.331-0.865,4.645c-0.576,1.314-1.355,2.406-2.338,3.274
		c-0.98,0.869-2.135,1.526-3.463,1.971c-1.326,0.445-2.723,0.668-4.184,0.668c-0.309,0-0.885-0.057-1.732-0.167
		c-0.846-0.11-1.789-0.411-2.826-0.901c-1.039-0.49-2.088-1.258-3.146-2.306c-1.059-1.046-1.934-2.483-2.625-4.31
		c-0.154-0.356-0.23-0.802-0.23-1.336c0-0.979,0.297-1.825,0.895-2.539c0.594-0.712,1.336-1.068,2.221-1.068
		c0.654,0,1.232,0.212,1.732,0.634c0.5,0.423,0.865,0.947,1.098,1.571c0.383,1.025,1.037,1.815,1.961,2.372
		c0.924,0.558,1.848,0.835,2.772,0.835c1.23,0,2.297-0.234,3.203-0.701c0.902-0.468,1.356-1.347,1.356-2.64
		c0-1.292-0.432-2.172-1.299-2.639c-0.865-0.468-1.953-0.702-3.26-0.702c-1.465,0-2.82-0.166-4.07-0.5
		c-1.252-0.334-2.328-0.879-3.232-1.638c-0.904-0.756-1.605-1.771-2.105-3.04c-0.502-1.271-0.752-2.842-0.752-4.713
		c0-1.471,0.25-2.806,0.752-4.008c0.498-1.203,1.201-2.239,2.105-3.107c0.904-0.869,1.982-1.547,3.232-2.038
		c1.25-0.491,2.605-0.736,4.07-0.736c1.191,0.046,2.346,0.268,3.463,0.669c0.961,0.357,1.941,0.891,2.943,1.604
		c1,0.713,1.826,1.737,2.482,3.074c0.346,0.668,0.518,1.336,0.518,2.005c0,0.98-0.287,1.815-0.865,2.505
		c-0.576,0.691-1.289,1.036-2.135,1.036c-0.424,0-0.865-0.122-1.328-0.368C278.213,26.768,277.801,26.356,277.525,25.948z"/>
</g>
<g>
	
		<path fill-rule="evenodd" clip-rule="evenodd" fill="#696969" stroke="#696969" stroke-width="0.5669" stroke-miterlimit="22.9256" d="
		M296.193,10.127c0.002,9.22,0.002,18.441,0.002,27.661c0,1.693,0.277,3.286,0.836,4.778c0.557,1.492,1.328,2.806,2.309,3.942
		c0.98,1.136,2.125,2.027,3.434,2.672c1.309,0.646,2.693,0.969,4.156,0.969c0.037,0,0.422-0.023,1.154-0.067
		c0.73-0.045,1.615-0.3,2.654-0.768c1.039-0.468,2.117-1.225,3.232-2.273c1.115-1.046,2.059-2.572,2.828-4.577
		c0.191-0.535,0.287-0.98,0.287-1.336c0-0.979-0.299-1.825-0.895-2.539c-0.596-0.712-1.338-1.068-2.223-1.068
		c-0.654,0-1.232,0.211-1.73,0.634c-0.502,0.425-0.867,0.947-1.098,1.571c-0.385,1.025-0.963,1.815-1.732,2.372
		c-0.77,0.557-1.596,0.835-2.48,0.835c-0.617,0-1.203-0.134-1.762-0.401c-0.559-0.267-1.039-0.635-1.443-1.102
		c-0.402-0.469-0.73-1.013-0.98-1.638c-0.25-0.623-0.375-1.291-0.375-2.004V23.89h9.293c0.885,0,1.625-0.356,2.223-1.068
		c0.596-0.713,0.895-1.538,0.895-2.473c0-1.025-0.299-1.881-0.895-2.573c-0.598-0.69-1.338-1.035-2.223-1.035h-9.291v-6.614
		c0-1.024-0.309-1.881-0.924-2.573c-0.617-0.69-1.348-1.036-2.195-1.036c-0.846,0-1.568,0.346-2.164,1.036
		C296.488,8.246,296.191,9.102,296.193,10.127L296.193,10.127z"/>
	
		<path fill-rule="evenodd" clip-rule="evenodd" fill="#696969" stroke="#696969" stroke-width="0.5669" stroke-miterlimit="22.9256" d="
		M296.193,10.127c0.002,9.22,0.002,18.441,0.002,27.661c0,1.693,0.277,3.286,0.836,4.778c0.557,1.492,1.328,2.806,2.309,3.942
		c0.98,1.136,2.125,2.027,3.434,2.672c1.309,0.646,2.693,0.969,4.156,0.969c0.037,0,0.422-0.023,1.154-0.067
		c0.73-0.045,1.615-0.3,2.654-0.768c1.039-0.468,2.117-1.225,3.232-2.273c1.115-1.046,2.059-2.572,2.828-4.577
		c0.191-0.535,0.287-0.98,0.287-1.336c0-0.979-0.299-1.825-0.895-2.539c-0.596-0.712-1.338-1.068-2.223-1.068
		c-0.654,0-1.232,0.211-1.73,0.634c-0.502,0.425-0.867,0.947-1.098,1.571c-0.385,1.025-0.963,1.815-1.732,2.372
		c-0.77,0.557-1.596,0.835-2.48,0.835c-0.617,0-1.203-0.134-1.762-0.401c-0.559-0.267-1.039-0.635-1.443-1.102
		c-0.402-0.469-0.73-1.013-0.98-1.638c-0.25-0.623-0.375-1.291-0.375-2.004V23.89h9.293c0.885,0,1.625-0.356,2.223-1.068
		c0.596-0.713,0.895-1.538,0.895-2.473c0-1.025-0.299-1.881-0.895-2.573c-0.598-0.69-1.338-1.035-2.223-1.035h-9.291v-6.614
		c0-1.024-0.309-1.881-0.924-2.573c-0.617-0.69-1.348-1.036-2.195-1.036c-0.846,0-1.568,0.346-2.164,1.036
		C296.488,8.246,296.191,9.102,296.193,10.127L296.193,10.127z"/>
</g>
<g>
	
		<path fill-rule="evenodd" clip-rule="evenodd" fill="#696969" stroke="#696969" stroke-width="0.5669" stroke-miterlimit="22.9256" d="
		M327.531,46.275c0-0.98,0.297-1.814,0.895-2.506c0.596-0.69,1.336-1.035,2.221-1.035c0.809,0,1.52,0.346,2.137,1.035
		c0.615,0.691,0.924,1.526,0.924,2.506c0,1.025-0.299,1.881-0.897,2.572c-0.596,0.691-1.318,1.035-2.164,1.035
		s-1.576-0.345-2.191-1.035C327.838,48.156,327.531,47.299,327.531,46.275z"/>
	
		<path fill-rule="evenodd" clip-rule="evenodd" fill="#696969" stroke="#696969" stroke-width="0.5669" stroke-miterlimit="22.9256" d="
		M327.531,46.275c0-0.98,0.297-1.814,0.895-2.506c0.596-0.69,1.336-1.035,2.221-1.035c0.809,0,1.52,0.346,2.137,1.035
		c0.615,0.691,0.924,1.526,0.924,2.506c0,1.025-0.299,1.881-0.897,2.572c-0.596,0.691-1.318,1.035-2.164,1.035
		s-1.576-0.345-2.191-1.035C327.838,48.156,327.531,47.299,327.531,46.275z"/>
</g>
<g>
	
		<path fill-rule="evenodd" clip-rule="evenodd" fill="#696969" stroke="#696969" stroke-width="0.5669" stroke-miterlimit="22.9256" d="
		M343.289,28.835c0-1.737,0.287-3.363,0.865-4.878c0.576-1.513,1.365-2.817,2.365-3.908c1-1.091,2.166-1.959,3.492-2.605
		c1.328-0.646,2.742-0.97,4.242-0.97c0.27,0,0.809,0.068,1.617,0.201c0.809,0.133,1.701,0.458,2.684,0.968
		c0.98,0.513,1.961,1.281,2.943,2.306c0.982,1.025,1.799,2.45,2.453,4.276c0.076,0.18,0.135,0.38,0.174,0.602
		c0.037,0.224,0.057,0.446,0.057,0.668c0,1.025-0.299,1.882-0.895,2.573c-0.598,0.692-1.338,1.035-2.223,1.035
		c-0.615,0-1.184-0.2-1.703-0.601c-0.519-0.401-0.894-0.935-1.125-1.604c-0.387-0.979-0.963-1.759-1.732-2.339
		c-0.77-0.578-1.598-0.868-2.482-0.868c-1.269,0-2.348,0.501-3.23,1.504c-0.887,1.002-1.328,2.216-1.328,3.642v8.953
		c0,0.713,0.125,1.381,0.375,2.004c0.25,0.625,0.576,1.169,0.98,1.638c0.404,0.467,0.887,0.835,1.443,1.103
		c0.559,0.267,1.145,0.401,1.76,0.401c0.885,0,1.711-0.279,2.482-0.835c0.77-0.557,1.346-1.347,1.732-2.372
		c0.231-0.624,0.596-1.146,1.098-1.571c0.498-0.423,1.076-0.634,1.73-0.634c0.885,0,1.625,0.356,2.223,1.068
		c0.596,0.713,0.895,1.56,0.895,2.539c0,0.356-0.096,0.801-0.289,1.336c-0.77,2.005-1.711,3.531-2.826,4.577
		c-1.117,1.047-2.193,1.805-3.232,2.273c-1.039,0.467-1.924,0.723-2.656,0.767c-0.73,0.044-1.115,0.067-1.154,0.067
		c-1.463,0-2.848-0.323-4.154-0.968c-1.309-0.646-2.453-1.537-3.434-2.673c-0.98-1.136-1.752-2.45-2.308-3.942
		c-0.559-1.492-0.838-3.084-0.838-4.777V28.835L343.289,28.835z"/>
	
		<path fill-rule="evenodd" clip-rule="evenodd" fill="#696969" stroke="#696969" stroke-width="0.5669" stroke-miterlimit="22.9256" d="
		M343.289,28.835c0-1.737,0.287-3.363,0.865-4.878c0.576-1.513,1.365-2.817,2.365-3.908c1-1.091,2.166-1.959,3.492-2.605
		c1.328-0.646,2.742-0.97,4.242-0.97c0.27,0,0.809,0.068,1.617,0.201c0.809,0.133,1.701,0.458,2.684,0.968
		c0.98,0.513,1.961,1.281,2.943,2.306c0.982,1.025,1.799,2.45,2.453,4.276c0.076,0.18,0.135,0.38,0.174,0.602
		c0.037,0.224,0.057,0.446,0.057,0.668c0,1.025-0.299,1.882-0.895,2.573c-0.598,0.692-1.338,1.035-2.223,1.035
		c-0.615,0-1.184-0.2-1.703-0.601c-0.519-0.401-0.894-0.935-1.125-1.604c-0.387-0.979-0.963-1.759-1.732-2.339
		c-0.77-0.578-1.598-0.868-2.482-0.868c-1.269,0-2.348,0.501-3.23,1.504c-0.887,1.002-1.328,2.216-1.328,3.642v8.953
		c0,0.713,0.125,1.381,0.375,2.004c0.25,0.625,0.576,1.169,0.98,1.638c0.404,0.467,0.887,0.835,1.443,1.103
		c0.559,0.267,1.145,0.401,1.76,0.401c0.885,0,1.711-0.279,2.482-0.835c0.77-0.557,1.346-1.347,1.732-2.372
		c0.231-0.624,0.596-1.146,1.098-1.571c0.498-0.423,1.076-0.634,1.73-0.634c0.885,0,1.625,0.356,2.223,1.068
		c0.596,0.713,0.895,1.56,0.895,2.539c0,0.356-0.096,0.801-0.289,1.336c-0.77,2.005-1.711,3.531-2.826,4.577
		c-1.117,1.047-2.193,1.805-3.232,2.273c-1.039,0.467-1.924,0.723-2.656,0.767c-0.73,0.044-1.115,0.067-1.154,0.067
		c-1.463,0-2.848-0.323-4.154-0.968c-1.309-0.646-2.453-1.537-3.434-2.673c-0.98-1.136-1.752-2.45-2.308-3.942
		c-0.559-1.492-0.838-3.084-0.838-4.777V28.835L343.289,28.835z"/>
</g>
<g>
	
		<path fill-rule="evenodd" clip-rule="evenodd" fill="#696969" stroke="#696969" stroke-width="0.5669" stroke-miterlimit="22.9256" d="
		M379.879,23.89c-0.885,0-1.625-0.345-2.221-1.035c-0.598-0.691-0.895-1.525-0.895-2.506c0-0.979,0.297-1.825,0.895-2.539
		c0.596-0.712,1.336-1.069,2.221-1.069l14.488,0c1,0,1.865,0.29,2.596,0.869c0.73,0.58,1.098,1.448,1.098,2.605
		c0,0.268-0.049,0.591-0.145,0.97c-0.096,0.379-0.26,0.768-0.49,1.169l-12.295,20.379h10.045c0.846,0,1.566,0.346,2.164,1.035
		c0.596,0.691,0.895,1.526,0.895,2.506s-0.299,1.827-0.895,2.539c-0.598,0.714-1.318,1.069-2.164,1.069l-15.758,0
		c-1.078,0-1.934-0.333-2.568-1.002c-0.635-0.668-0.951-1.514-0.951-2.539c0-0.757,0.211-1.447,0.635-2.072v0.067
		c1.115-1.871,2.172-3.63,3.174-5.279c0.998-1.647,2-3.296,3-4.945c1-1.647,2.012-3.296,3.031-4.944
		c1.018-1.647,2.086-3.408,3.201-5.279H379.879z"/>
	
		<path fill-rule="evenodd" clip-rule="evenodd" fill="#696969" stroke="#696969" stroke-width="0.5669" stroke-miterlimit="22.9256" d="
		M379.879,23.89c-0.885,0-1.625-0.345-2.221-1.035c-0.598-0.691-0.895-1.525-0.895-2.506c0-0.979,0.297-1.825,0.895-2.539
		c0.596-0.712,1.336-1.069,2.221-1.069l14.488,0c1,0,1.865,0.29,2.596,0.869c0.73,0.58,1.098,1.448,1.098,2.605
		c0,0.268-0.049,0.591-0.145,0.97c-0.096,0.379-0.26,0.768-0.49,1.169l-12.295,20.379h10.045c0.846,0,1.566,0.346,2.164,1.035
		c0.596,0.691,0.895,1.526,0.895,2.506s-0.299,1.827-0.895,2.539c-0.598,0.714-1.318,1.069-2.164,1.069l-15.758,0
		c-1.078,0-1.934-0.333-2.568-1.002c-0.635-0.668-0.951-1.514-0.951-2.539c0-0.757,0.211-1.447,0.635-2.072v0.067
		c1.115-1.871,2.172-3.63,3.174-5.279c0.998-1.647,2-3.296,3-4.945c1-1.647,2.012-3.296,3.031-4.944
		c1.018-1.647,2.086-3.408,3.201-5.279H379.879z"/>
</g>
<path fill-rule="evenodd" clip-rule="evenodd" fill="#FFFFFF" stroke="#696969" stroke-width="1.6801" stroke-miterlimit="22.9256" d="
	M380.199,57.771h8.607c0.27,0,0.49,0.221,0.49,0.491v19.63c0,0.271-0.221,0.491-0.49,0.491h-8.607c-0.27,0-0.49-0.221-0.49-0.491
	v-19.63C379.709,57.992,379.93,57.771,380.199,57.771z"/>
<path fill-rule="evenodd" clip-rule="evenodd" fill="#FFFFFF" stroke="#696969" stroke-width="1.6801" stroke-miterlimit="22.9256" d="
	M394.031,57.771h8.605c0.271,0,0.492,0.221,0.492,0.491v19.63c0,0.271-0.221,0.491-0.492,0.491h-8.605
	c-0.271,0-0.492-0.221-0.492-0.491v-19.63C393.539,57.992,393.76,57.771,394.031,57.771z"/>
<path fill-rule="evenodd" clip-rule="evenodd" fill="#FFFFFF" stroke="#696969" stroke-width="1.6801" stroke-miterlimit="22.9256" d="
	M352.537,57.771h8.607c0.27,0,0.49,0.221,0.49,0.491v19.63c0,0.271-0.221,0.491-0.49,0.491h-8.607c-0.27,0-0.49-0.221-0.49-0.491
	v-19.63C352.047,57.992,352.268,57.771,352.537,57.771z"/>
<path fill-rule="evenodd" clip-rule="evenodd" fill="#FFFFFF" stroke="#696969" stroke-width="1.6798" stroke-miterlimit="22.9256" d="
	M366.369,57.771h8.605c0.272,0,0.492,0.221,0.492,0.491v19.63c0,0.271-0.221,0.491-0.492,0.491h-8.605
	c-0.271,0-0.492-0.221-0.492-0.491v-19.63C365.877,57.992,366.098,57.771,366.369,57.771z"/>
<path fill-rule="evenodd" clip-rule="evenodd" fill="#FFFFFF" stroke="#696969" stroke-width="1.6801" stroke-miterlimit="22.9256" d="
	M324.877,57.771h8.605c0.271,0,0.492,0.221,0.492,0.491v19.63c0,0.271-0.221,0.491-0.492,0.491h-8.605
	c-0.272,0-0.492-0.221-0.492-0.491v-19.63C324.385,57.992,324.605,57.771,324.877,57.771z"/>
<path fill-rule="evenodd" clip-rule="evenodd" fill="#FFFFFF" stroke="#696969" stroke-width="1.6801" stroke-miterlimit="22.9256" d="
	M338.707,57.771h8.607c0.27,0,0.49,0.221,0.49,0.491v19.63c0,0.271-0.221,0.491-0.49,0.491h-8.607c-0.27,0-0.49-0.221-0.49-0.491
	v-19.63C338.217,57.992,338.437,57.771,338.707,57.771z"/>
<path fill-rule="evenodd" clip-rule="evenodd" fill="#FFFFFF" stroke="#696969" stroke-width="1.6801" stroke-miterlimit="22.9256" d="
	M297.215,57.771h8.608c0.27,0,0.49,0.221,0.49,0.491v19.63c0,0.271-0.221,0.491-0.49,0.491h-8.608c-0.27,0-0.49-0.221-0.49-0.491
	v-19.63C296.725,57.992,296.945,57.771,297.215,57.771z"/>
<path fill-rule="evenodd" clip-rule="evenodd" fill="#FFFFFF" stroke="#696969" stroke-width="1.6798" stroke-miterlimit="22.9256" d="
	M311.045,57.771h8.607c0.27,0,0.49,0.221,0.49,0.491v19.63c0,0.271-0.221,0.491-0.49,0.491h-8.607c-0.27,0-0.49-0.221-0.49-0.491
	v-19.63C310.555,57.992,310.775,57.771,311.045,57.771z"/>
<path fill-rule="evenodd" clip-rule="evenodd" fill="#FFFFFF" stroke="#696969" stroke-width="1.6801" stroke-miterlimit="22.9256" d="
	M283.385,57.771h8.605c0.272,0,0.492,0.221,0.492,0.491v19.63c0,0.271-0.221,0.491-0.492,0.491h-8.605
	c-0.272,0-0.492-0.221-0.492-0.491v-19.63C282.893,57.992,283.113,57.771,283.385,57.771z"/>
<path fill-rule="evenodd" clip-rule="evenodd" fill="#FFFFFF" stroke="#696969" stroke-width="1.6798" stroke-miterlimit="22.9256" d="
	M255.723,57.771h8.607c0.27,0,0.49,0.221,0.49,0.491v19.63c0,0.271-0.221,0.491-0.49,0.491h-8.607c-0.27,0-0.49-0.221-0.49-0.491
	v-19.63C255.232,57.992,255.453,57.771,255.723,57.771z"/>
<path fill-rule="evenodd" clip-rule="evenodd" fill="#FFFFFF" stroke="#696969" stroke-width="1.6801" stroke-miterlimit="22.9256" d="
	M269.553,57.771h8.608c0.27,0,0.49,0.221,0.49,0.491v19.63c0,0.271-0.221,0.491-0.49,0.491h-8.608c-0.27,0-0.49-0.221-0.49-0.491
	v-19.63C269.062,57.992,269.283,57.771,269.553,57.771z"/>
<path fill-rule="evenodd" clip-rule="evenodd" fill="#FFFFFF" stroke="#696969" stroke-width="1.6801" stroke-miterlimit="22.9256" d="
	M228.061,57.771h8.606c0.271,0,0.491,0.221,0.491,0.491v19.63c0,0.271-0.221,0.491-0.491,0.491h-8.606
	c-0.271,0-0.491-0.221-0.491-0.491v-19.63C227.57,57.992,227.79,57.771,228.061,57.771z"/>
<path fill-rule="evenodd" clip-rule="evenodd" fill="#FFFFFF" stroke="#696969" stroke-width="1.6801" stroke-miterlimit="22.9256" d="
	M241.891,57.771h8.607c0.27,0,0.49,0.221,0.49,0.491v19.63c0,0.271-0.221,0.491-0.49,0.491h-8.607c-0.27,0-0.49-0.221-0.49-0.491
	v-19.63C241.401,57.992,241.622,57.771,241.891,57.771z"/>
<path fill-rule="evenodd" clip-rule="evenodd" fill="#FFFFFF" stroke="#696969" stroke-width="1.6798" stroke-miterlimit="22.9256" d="
	M200.399,57.771h8.607c0.271,0,0.491,0.221,0.491,0.491v19.63c0,0.271-0.221,0.491-0.491,0.491h-8.607
	c-0.27,0-0.49-0.221-0.49-0.491v-19.63C199.909,57.992,200.129,57.771,200.399,57.771z"/>
<path fill-rule="evenodd" clip-rule="evenodd" fill="#FFFFFF" stroke="#696969" stroke-width="1.6801" stroke-miterlimit="22.9256" d="
	M214.23,57.771h8.607c0.27,0,0.49,0.221,0.49,0.491v19.63c0,0.271-0.221,0.491-0.49,0.491h-8.607c-0.27,0-0.491-0.221-0.491-0.491
	v-19.63C213.739,57.992,213.96,57.771,214.23,57.771z"/>
<g>
	
		<path fill-rule="evenodd" clip-rule="evenodd" fill="#696969" stroke="#696969" stroke-width="1.6801" stroke-miterlimit="22.9256" d="
		M172.738,57.771h8.606c0.27,0,0.491,0.221,0.491,0.491v19.63c0,0.271-0.221,0.491-0.491,0.491h-8.606
		c-0.271,0-0.491-0.221-0.491-0.491v-19.63C172.247,57.992,172.467,57.771,172.738,57.771z"/>
	<path fill-rule="evenodd" clip-rule="evenodd" fill="#696969" stroke="#696969" stroke-miterlimit="10" d="M172.738,57.771h8.606
		c0.27,0,0.491,0.221,0.491,0.491v19.63c0,0.271-0.221,0.491-0.491,0.491h-8.606c-0.271,0-0.491-0.221-0.491-0.491v-19.63
		C172.247,57.992,172.467,57.771,172.738,57.771z"/>
</g>
<g>
	
		<path fill-rule="evenodd" clip-rule="evenodd" fill="#696969" stroke="#696969" stroke-width="1.6801" stroke-miterlimit="22.9256" d="
		M186.569,57.771h8.607c0.27,0,0.491,0.221,0.491,0.491v19.63c0,0.271-0.221,0.491-0.491,0.491h-8.607
		c-0.27,0-0.491-0.221-0.491-0.491v-19.63C186.078,57.992,186.298,57.771,186.569,57.771z"/>
	<path fill-rule="evenodd" clip-rule="evenodd" fill="#696969" stroke="#696969" stroke-miterlimit="10" d="M186.569,57.771h8.607
		c0.27,0,0.491,0.221,0.491,0.491v19.63c0,0.271-0.221,0.491-0.491,0.491h-8.607c-0.27,0-0.491-0.221-0.491-0.491v-19.63
		C186.078,57.992,186.298,57.771,186.569,57.771z"/>
</g>
<g>
	
		<path fill-rule="evenodd" clip-rule="evenodd" fill="#696969" stroke="#696969" stroke-width="1.6798" stroke-miterlimit="22.9256" d="
		M145.077,57.771h8.606c0.27,0,0.491,0.221,0.491,0.491v19.63c0,0.271-0.221,0.491-0.491,0.491h-8.606
		c-0.271,0-0.491-0.221-0.491-0.491v-19.63C144.585,57.992,144.806,57.771,145.077,57.771z"/>
	<path fill-rule="evenodd" clip-rule="evenodd" fill="#696969" stroke="#696969" stroke-miterlimit="10" d="M145.077,57.771h8.606
		c0.27,0,0.491,0.221,0.491,0.491v19.63c0,0.271-0.221,0.491-0.491,0.491h-8.606c-0.271,0-0.491-0.221-0.491-0.491v-19.63
		C144.585,57.992,144.806,57.771,145.077,57.771z"/>
</g>
<g>
	
		<path fill-rule="evenodd" clip-rule="evenodd" fill="#696969" stroke="#696969" stroke-width="1.6801" stroke-miterlimit="22.9256" d="
		M158.908,57.771h8.607c0.27,0,0.491,0.221,0.491,0.491v19.63c0,0.271-0.222,0.491-0.491,0.491h-8.607
		c-0.27,0-0.491-0.221-0.491-0.491v-19.63C158.416,57.992,158.637,57.771,158.908,57.771z"/>
	<path fill-rule="evenodd" clip-rule="evenodd" fill="#696969" stroke="#696969" stroke-miterlimit="10" d="M158.908,57.771h8.607
		c0.27,0,0.491,0.221,0.491,0.491v19.63c0,0.271-0.222,0.491-0.491,0.491h-8.607c-0.27,0-0.491-0.221-0.491-0.491v-19.63
		C158.416,57.992,158.637,57.771,158.908,57.771z"/>
</g>
<g>
	
		<path fill-rule="evenodd" clip-rule="evenodd" fill="#696969" stroke="#696969" stroke-width="1.6801" stroke-miterlimit="22.9256" d="
		M117.415,57.771h8.607c0.269,0,0.49,0.221,0.49,0.491v19.63c0,0.271-0.221,0.491-0.49,0.491h-8.607c-0.27,0-0.49-0.221-0.49-0.491
		v-19.63C116.924,57.992,117.145,57.771,117.415,57.771z"/>
	<path fill-rule="evenodd" clip-rule="evenodd" fill="#696969" stroke="#696969" stroke-miterlimit="10" d="M117.415,57.771h8.607
		c0.269,0,0.49,0.221,0.49,0.491v19.63c0,0.271-0.221,0.491-0.49,0.491h-8.607c-0.27,0-0.49-0.221-0.49-0.491v-19.63
		C116.924,57.992,117.145,57.771,117.415,57.771z"/>
</g>
<g>
	
		<path fill-rule="evenodd" clip-rule="evenodd" fill="#696969" stroke="#696969" stroke-width="1.6801" stroke-miterlimit="22.9256" d="
		M131.246,57.771h8.606c0.271,0,0.491,0.221,0.491,0.491v19.63c0,0.271-0.221,0.491-0.491,0.491h-8.606
		c-0.271,0-0.491-0.221-0.491-0.491v-19.63C130.754,57.992,130.975,57.771,131.246,57.771z"/>
	<path fill-rule="evenodd" clip-rule="evenodd" fill="#696969" stroke="#696969" stroke-miterlimit="10" d="M131.246,57.771h8.606
		c0.271,0,0.491,0.221,0.491,0.491v19.63c0,0.271-0.221,0.491-0.491,0.491h-8.606c-0.271,0-0.491-0.221-0.491-0.491v-19.63
		C130.754,57.992,130.975,57.771,131.246,57.771z"/>
</g>
<g>
	
		<path fill-rule="evenodd" clip-rule="evenodd" fill="#696969" stroke="#696969" stroke-width="1.6801" stroke-miterlimit="22.9256" d="
		M89.753,57.771h8.606c0.271,0,0.491,0.221,0.491,0.491v19.63c0,0.271-0.221,0.491-0.491,0.491h-8.606
		c-0.271,0-0.491-0.221-0.491-0.491v-19.63C89.262,57.992,89.483,57.771,89.753,57.771z"/>
	<path fill-rule="evenodd" clip-rule="evenodd" fill="#696969" stroke="#696969" stroke-miterlimit="10" d="M89.753,57.771h8.606
		c0.271,0,0.491,0.221,0.491,0.491v19.63c0,0.271-0.221,0.491-0.491,0.491h-8.606c-0.271,0-0.491-0.221-0.491-0.491v-19.63
		C89.262,57.992,89.483,57.771,89.753,57.771z"/>
</g>
<g>
	
		<path fill-rule="evenodd" clip-rule="evenodd" fill="#696969" stroke="#696969" stroke-width="1.6801" stroke-miterlimit="22.9256" d="
		M103.584,57.771h8.606c0.271,0,0.491,0.221,0.491,0.491v19.63c0,0.271-0.221,0.491-0.491,0.491h-8.606
		c-0.27,0-0.491-0.221-0.491-0.491v-19.63C103.093,57.992,103.314,57.771,103.584,57.771z"/>
	<path fill-rule="evenodd" clip-rule="evenodd" fill="#696969" stroke="#696969" stroke-miterlimit="10" d="M103.584,57.771h8.606
		c0.271,0,0.491,0.221,0.491,0.491v19.63c0,0.271-0.221,0.491-0.491,0.491h-8.606c-0.27,0-0.491-0.221-0.491-0.491v-19.63
		C103.093,57.992,103.314,57.771,103.584,57.771z"/>
</g>
<g>
	
		<path fill-rule="evenodd" clip-rule="evenodd" fill="#696969" stroke="#696969" stroke-width="1.6801" stroke-miterlimit="22.9256" d="
		M75.922,57.771h8.607c0.269,0,0.49,0.221,0.49,0.491v19.63c0,0.271-0.221,0.491-0.49,0.491h-8.607
		c-0.271,0-0.491-0.221-0.491-0.491v-19.63C75.431,57.992,75.652,57.771,75.922,57.771z"/>
	<path fill-rule="evenodd" clip-rule="evenodd" fill="#696969" stroke="#696969" stroke-miterlimit="10" d="M75.922,57.771h8.607
		c0.269,0,0.49,0.221,0.49,0.491v19.63c0,0.271-0.221,0.491-0.49,0.491h-8.607c-0.271,0-0.491-0.221-0.491-0.491v-19.63
		C75.431,57.992,75.652,57.771,75.922,57.771z"/>
</g>
<g>
	
		<path fill-rule="evenodd" clip-rule="evenodd" fill="#696969" stroke="#696969" stroke-width="1.6801" stroke-miterlimit="22.9256" d="
		M48.261,57.771h8.607c0.271,0,0.491,0.221,0.491,0.491v19.63c0,0.271-0.221,0.491-0.491,0.491h-8.607
		c-0.27,0-0.491-0.221-0.491-0.491v-19.63C47.77,57.992,47.991,57.771,48.261,57.771z"/>
	<path fill-rule="evenodd" clip-rule="evenodd" fill="#696969" stroke="#696969" stroke-miterlimit="10" d="M48.261,57.771h8.607
		c0.271,0,0.491,0.221,0.491,0.491v19.63c0,0.271-0.221,0.491-0.491,0.491h-8.607c-0.27,0-0.491-0.221-0.491-0.491v-19.63
		C47.77,57.992,47.991,57.771,48.261,57.771z"/>
</g>
<g>
	
		<path fill-rule="evenodd" clip-rule="evenodd" fill="#696969" stroke="#696969" stroke-width="1.6801" stroke-miterlimit="22.9256" d="
		M62.091,57.771h8.607c0.27,0,0.49,0.221,0.49,0.491v19.63c0,0.271-0.221,0.491-0.49,0.491h-8.607c-0.27,0-0.49-0.221-0.49-0.491
		v-19.63C61.601,57.992,61.822,57.771,62.091,57.771z"/>
	<path fill-rule="evenodd" clip-rule="evenodd" fill="#696969" stroke="#696969" stroke-miterlimit="10" d="M62.091,57.771h8.607
		c0.27,0,0.49,0.221,0.49,0.491v19.63c0,0.271-0.221,0.491-0.49,0.491h-8.607c-0.27,0-0.49-0.221-0.49-0.491v-19.63
		C61.601,57.992,61.822,57.771,62.091,57.771z"/>
</g>
<g>
	
		<path fill-rule="evenodd" clip-rule="evenodd" fill="#696969" stroke="#696969" stroke-width="1.6801" stroke-miterlimit="22.9256" d="
		M20.599,57.771h8.607c0.27,0,0.491,0.221,0.491,0.491v19.63c0,0.271-0.221,0.491-0.491,0.491h-8.607
		c-0.27,0-0.491-0.221-0.491-0.491v-19.63C20.108,57.992,20.329,57.771,20.599,57.771z"/>
	<path fill-rule="evenodd" clip-rule="evenodd" fill="#696969" stroke="#696969" stroke-miterlimit="10" d="M20.599,57.771h8.607
		c0.27,0,0.491,0.221,0.491,0.491v19.63c0,0.271-0.221,0.491-0.491,0.491h-8.607c-0.27,0-0.491-0.221-0.491-0.491v-19.63
		C20.108,57.992,20.329,57.771,20.599,57.771z"/>
</g>
<g>
	
		<path fill-rule="evenodd" clip-rule="evenodd" fill="#696969" stroke="#696969" stroke-width="1.6798" stroke-miterlimit="22.9256" d="
		M34.43,57.771h8.607c0.27,0,0.491,0.221,0.491,0.491v19.63c0,0.271-0.221,0.491-0.491,0.491H34.43
		c-0.271,0-0.491-0.221-0.491-0.491v-19.63C33.939,57.992,34.16,57.771,34.43,57.771z"/>
	<path fill-rule="evenodd" clip-rule="evenodd" fill="#696969" stroke="#696969" stroke-miterlimit="10" d="M34.43,57.771h8.607
		c0.27,0,0.491,0.221,0.491,0.491v19.63c0,0.271-0.221,0.491-0.491,0.491H34.43c-0.271,0-0.491-0.221-0.491-0.491v-19.63
		C33.939,57.992,34.16,57.771,34.43,57.771z"/>
</g>
<g>
	
		<path fill-rule="evenodd" clip-rule="evenodd" fill="#696969" stroke="#696969" stroke-width="1.6801" stroke-miterlimit="22.9256" d="
		M6.769,57.771h8.607c0.27,0,0.491,0.221,0.491,0.491v19.63c0,0.271-0.221,0.491-0.491,0.491H6.769c-0.27,0-0.491-0.221-0.491-0.491
		v-19.63C6.278,57.992,6.498,57.771,6.769,57.771z"/>
	<path fill-rule="evenodd" clip-rule="evenodd" fill="#696969" stroke="#696969" stroke-miterlimit="10" d="M6.769,57.771h8.607
		c0.27,0,0.491,0.221,0.491,0.491v19.63c0,0.271-0.221,0.491-0.491,0.491H6.769c-0.27,0-0.491-0.221-0.491-0.491v-19.63
		C6.278,57.992,6.498,57.771,6.769,57.771z"/>
</g>
</svg>

